<mxfile host="Electron" modified="2023-12-16T15:47:19.749Z" agent="Mozilla/5.0 (Windows NT 10.0; Win64; x64) AppleWebKit/537.36 (KHTML, like Gecko) draw.io/22.0.2 Chrome/114.0.5735.289 Electron/25.8.4 Safari/537.36" etag="Q6SsL10VyGBRqpdQXgvr" version="22.0.2" type="device">
  <diagram name="第 1 页" id="cHqJ8GiJMs-tgXEXcK8N">
    <mxGraphModel dx="711" dy="796" grid="1" gridSize="10" guides="1" tooltips="1" connect="1" arrows="1" fold="1" page="1" pageScale="1" pageWidth="827" pageHeight="1169" math="0" shadow="0">
      <root>
        <mxCell id="0" />
        <mxCell id="1" parent="0" />
        <mxCell id="v1VoSOO-kYvfU0O0kBkG-22" value="" style="rounded=0;whiteSpace=wrap;html=1;strokeColor=#FF0000;" vertex="1" parent="1">
          <mxGeometry x="110" y="350" width="320" height="80" as="geometry" />
        </mxCell>
        <mxCell id="v1VoSOO-kYvfU0O0kBkG-4" style="edgeStyle=orthogonalEdgeStyle;rounded=0;orthogonalLoop=1;jettySize=auto;html=1;exitX=1;exitY=0.5;exitDx=0;exitDy=0;entryX=0;entryY=0.5;entryDx=0;entryDy=0;" edge="1" parent="1" source="v1VoSOO-kYvfU0O0kBkG-1" target="v1VoSOO-kYvfU0O0kBkG-2">
          <mxGeometry relative="1" as="geometry" />
        </mxCell>
        <mxCell id="v1VoSOO-kYvfU0O0kBkG-1" value="ffmpeg.exe" style="rounded=1;whiteSpace=wrap;html=1;" vertex="1" parent="1">
          <mxGeometry x="90" y="170" width="90" height="60" as="geometry" />
        </mxCell>
        <mxCell id="v1VoSOO-kYvfU0O0kBkG-5" style="edgeStyle=orthogonalEdgeStyle;rounded=0;orthogonalLoop=1;jettySize=auto;html=1;exitX=1;exitY=0.5;exitDx=0;exitDy=0;entryX=0;entryY=0.5;entryDx=0;entryDy=0;" edge="1" parent="1" source="v1VoSOO-kYvfU0O0kBkG-2" target="v1VoSOO-kYvfU0O0kBkG-3">
          <mxGeometry relative="1" as="geometry" />
        </mxCell>
        <mxCell id="v1VoSOO-kYvfU0O0kBkG-2" value="EasyDarwin" style="rounded=1;whiteSpace=wrap;html=1;" vertex="1" parent="1">
          <mxGeometry x="230" y="170" width="90" height="60" as="geometry" />
        </mxCell>
        <mxCell id="v1VoSOO-kYvfU0O0kBkG-3" value="RTSP客户端" style="rounded=1;whiteSpace=wrap;html=1;" vertex="1" parent="1">
          <mxGeometry x="369" y="170" width="90" height="60" as="geometry" />
        </mxCell>
        <mxCell id="v1VoSOO-kYvfU0O0kBkG-6" style="edgeStyle=orthogonalEdgeStyle;rounded=0;orthogonalLoop=1;jettySize=auto;html=1;exitX=0.5;exitY=1;exitDx=0;exitDy=0;entryX=0.5;entryY=0;entryDx=0;entryDy=0;" edge="1" parent="1" source="v1VoSOO-kYvfU0O0kBkG-7" target="v1VoSOO-kYvfU0O0kBkG-9">
          <mxGeometry relative="1" as="geometry" />
        </mxCell>
        <mxCell id="v1VoSOO-kYvfU0O0kBkG-7" value="源数据" style="rounded=1;whiteSpace=wrap;html=1;fontSize=16;" vertex="1" parent="1">
          <mxGeometry x="150" y="360" width="120" height="60" as="geometry" />
        </mxCell>
        <mxCell id="v1VoSOO-kYvfU0O0kBkG-8" style="edgeStyle=orthogonalEdgeStyle;rounded=0;orthogonalLoop=1;jettySize=auto;html=1;exitX=0.5;exitY=1;exitDx=0;exitDy=0;entryX=0.5;entryY=0;entryDx=0;entryDy=0;" edge="1" parent="1" source="v1VoSOO-kYvfU0O0kBkG-9" target="v1VoSOO-kYvfU0O0kBkG-11">
          <mxGeometry relative="1" as="geometry" />
        </mxCell>
        <mxCell id="v1VoSOO-kYvfU0O0kBkG-9" value="封装格式数据" style="rounded=1;whiteSpace=wrap;html=1;fontSize=16;" vertex="1" parent="1">
          <mxGeometry x="150" y="480" width="120" height="60" as="geometry" />
        </mxCell>
        <mxCell id="v1VoSOO-kYvfU0O0kBkG-10" style="edgeStyle=orthogonalEdgeStyle;rounded=0;orthogonalLoop=1;jettySize=auto;html=1;exitX=0.5;exitY=1;exitDx=0;exitDy=0;entryX=0.5;entryY=0;entryDx=0;entryDy=0;" edge="1" parent="1" source="v1VoSOO-kYvfU0O0kBkG-11" target="v1VoSOO-kYvfU0O0kBkG-13">
          <mxGeometry relative="1" as="geometry" />
        </mxCell>
        <mxCell id="v1VoSOO-kYvfU0O0kBkG-11" value="视频码流数据" style="rounded=1;whiteSpace=wrap;html=1;fontSize=16;" vertex="1" parent="1">
          <mxGeometry x="150" y="600" width="120" height="60" as="geometry" />
        </mxCell>
        <mxCell id="v1VoSOO-kYvfU0O0kBkG-12" style="edgeStyle=orthogonalEdgeStyle;rounded=0;orthogonalLoop=1;jettySize=auto;html=1;exitX=0.5;exitY=1;exitDx=0;exitDy=0;entryX=0.5;entryY=0;entryDx=0;entryDy=0;" edge="1" parent="1" source="v1VoSOO-kYvfU0O0kBkG-13" target="v1VoSOO-kYvfU0O0kBkG-14">
          <mxGeometry relative="1" as="geometry" />
        </mxCell>
        <mxCell id="v1VoSOO-kYvfU0O0kBkG-13" value="像素数据" style="rounded=1;whiteSpace=wrap;html=1;fontSize=16;" vertex="1" parent="1">
          <mxGeometry x="150" y="720" width="120" height="60" as="geometry" />
        </mxCell>
        <mxCell id="v1VoSOO-kYvfU0O0kBkG-14" value="显示" style="rounded=1;whiteSpace=wrap;html=1;fontSize=16;" vertex="1" parent="1">
          <mxGeometry x="150" y="840" width="120" height="60" as="geometry" />
        </mxCell>
        <mxCell id="v1VoSOO-kYvfU0O0kBkG-15" value="解协议" style="text;html=1;strokeColor=none;fillColor=none;align=center;verticalAlign=middle;whiteSpace=wrap;rounded=0;fontSize=14;" vertex="1" parent="1">
          <mxGeometry x="237" y="438" width="60" height="30" as="geometry" />
        </mxCell>
        <mxCell id="v1VoSOO-kYvfU0O0kBkG-16" value="解封装" style="text;html=1;strokeColor=none;fillColor=none;align=center;verticalAlign=middle;whiteSpace=wrap;rounded=0;fontSize=14;" vertex="1" parent="1">
          <mxGeometry x="237" y="560" width="60" height="30" as="geometry" />
        </mxCell>
        <mxCell id="v1VoSOO-kYvfU0O0kBkG-17" value="解码" style="text;html=1;strokeColor=none;fillColor=none;align=center;verticalAlign=middle;whiteSpace=wrap;rounded=0;fontSize=14;" vertex="1" parent="1">
          <mxGeometry x="237" y="680" width="60" height="30" as="geometry" />
        </mxCell>
        <mxCell id="v1VoSOO-kYvfU0O0kBkG-18" value="rtsp." style="text;html=1;strokeColor=none;fillColor=none;align=left;verticalAlign=middle;whiteSpace=wrap;rounded=0;fontSize=14;" vertex="1" parent="1">
          <mxGeometry x="346" y="375" width="150" height="30" as="geometry" />
        </mxCell>
        <mxCell id="v1VoSOO-kYvfU0O0kBkG-19" value="mkv，mp4，flv，avi，..." style="text;html=1;strokeColor=none;fillColor=none;align=left;verticalAlign=middle;whiteSpace=wrap;rounded=0;fontSize=14;" vertex="1" parent="1">
          <mxGeometry x="346" y="495" width="190" height="30" as="geometry" />
        </mxCell>
        <mxCell id="v1VoSOO-kYvfU0O0kBkG-20" value="h264，h265，mpeg2，aac，..." style="text;html=1;strokeColor=none;fillColor=none;align=left;verticalAlign=middle;whiteSpace=wrap;rounded=0;fontSize=14;" vertex="1" parent="1">
          <mxGeometry x="346" y="615" width="220" height="30" as="geometry" />
        </mxCell>
        <mxCell id="v1VoSOO-kYvfU0O0kBkG-21" value="yuv420p，rgb24，pcm，..." style="text;html=1;strokeColor=none;fillColor=none;align=left;verticalAlign=middle;whiteSpace=wrap;rounded=0;fontSize=14;" vertex="1" parent="1">
          <mxGeometry x="346" y="735" width="220" height="30" as="geometry" />
        </mxCell>
        <mxCell id="v1VoSOO-kYvfU0O0kBkG-26" style="edgeStyle=orthogonalEdgeStyle;rounded=0;orthogonalLoop=1;jettySize=auto;html=1;exitX=0.5;exitY=1;exitDx=0;exitDy=0;" edge="1" parent="1" source="v1VoSOO-kYvfU0O0kBkG-23">
          <mxGeometry relative="1" as="geometry">
            <mxPoint x="740" y="900" as="targetPoint" />
          </mxGeometry>
        </mxCell>
        <mxCell id="v1VoSOO-kYvfU0O0kBkG-23" value="server" style="rounded=1;whiteSpace=wrap;html=1;fontSize=15;" vertex="1" parent="1">
          <mxGeometry x="680" y="315" width="120" height="60" as="geometry" />
        </mxCell>
        <mxCell id="v1VoSOO-kYvfU0O0kBkG-27" style="edgeStyle=orthogonalEdgeStyle;rounded=0;orthogonalLoop=1;jettySize=auto;html=1;exitX=0.5;exitY=1;exitDx=0;exitDy=0;" edge="1" parent="1" source="v1VoSOO-kYvfU0O0kBkG-24">
          <mxGeometry relative="1" as="geometry">
            <mxPoint x="990" y="900" as="targetPoint" />
          </mxGeometry>
        </mxCell>
        <mxCell id="v1VoSOO-kYvfU0O0kBkG-24" value="client" style="rounded=1;whiteSpace=wrap;html=1;fontSize=15;" vertex="1" parent="1">
          <mxGeometry x="930" y="315" width="120" height="60" as="geometry" />
        </mxCell>
        <mxCell id="v1VoSOO-kYvfU0O0kBkG-28" value="" style="endArrow=classic;html=1;rounded=0;" edge="1" parent="1">
          <mxGeometry width="50" height="50" relative="1" as="geometry">
            <mxPoint x="960" y="430" as="sourcePoint" />
            <mxPoint x="770" y="430" as="targetPoint" />
          </mxGeometry>
        </mxCell>
        <mxCell id="v1VoSOO-kYvfU0O0kBkG-29" value="" style="endArrow=classic;html=1;rounded=0;" edge="1" parent="1">
          <mxGeometry width="50" height="50" relative="1" as="geometry">
            <mxPoint x="770" y="460" as="sourcePoint" />
            <mxPoint x="960" y="460" as="targetPoint" />
          </mxGeometry>
        </mxCell>
        <mxCell id="v1VoSOO-kYvfU0O0kBkG-30" value="OPTIONS" style="text;html=1;strokeColor=none;fillColor=none;align=center;verticalAlign=middle;whiteSpace=wrap;rounded=0;" vertex="1" parent="1">
          <mxGeometry x="835" y="400" width="60" height="30" as="geometry" />
        </mxCell>
        <mxCell id="v1VoSOO-kYvfU0O0kBkG-31" value="200 OK" style="text;html=1;strokeColor=none;fillColor=none;align=center;verticalAlign=middle;whiteSpace=wrap;rounded=0;" vertex="1" parent="1">
          <mxGeometry x="835" y="460" width="60" height="30" as="geometry" />
        </mxCell>
        <mxCell id="v1VoSOO-kYvfU0O0kBkG-32" value="" style="endArrow=classic;html=1;rounded=0;" edge="1" parent="1">
          <mxGeometry width="50" height="50" relative="1" as="geometry">
            <mxPoint x="960" y="530" as="sourcePoint" />
            <mxPoint x="770" y="530" as="targetPoint" />
          </mxGeometry>
        </mxCell>
        <mxCell id="v1VoSOO-kYvfU0O0kBkG-33" value="" style="endArrow=classic;html=1;rounded=0;" edge="1" parent="1">
          <mxGeometry width="50" height="50" relative="1" as="geometry">
            <mxPoint x="770" y="560" as="sourcePoint" />
            <mxPoint x="960" y="560" as="targetPoint" />
          </mxGeometry>
        </mxCell>
        <mxCell id="v1VoSOO-kYvfU0O0kBkG-34" value="DESCRIBE" style="text;html=1;strokeColor=none;fillColor=none;align=center;verticalAlign=middle;whiteSpace=wrap;rounded=0;" vertex="1" parent="1">
          <mxGeometry x="835" y="500" width="60" height="30" as="geometry" />
        </mxCell>
        <mxCell id="v1VoSOO-kYvfU0O0kBkG-35" value="200 OK" style="text;html=1;strokeColor=none;fillColor=none;align=center;verticalAlign=middle;whiteSpace=wrap;rounded=0;" vertex="1" parent="1">
          <mxGeometry x="835" y="560" width="60" height="30" as="geometry" />
        </mxCell>
        <mxCell id="v1VoSOO-kYvfU0O0kBkG-41" value="" style="endArrow=classic;html=1;rounded=0;" edge="1" parent="1">
          <mxGeometry width="50" height="50" relative="1" as="geometry">
            <mxPoint x="960" y="630" as="sourcePoint" />
            <mxPoint x="770" y="630" as="targetPoint" />
          </mxGeometry>
        </mxCell>
        <mxCell id="v1VoSOO-kYvfU0O0kBkG-42" value="" style="endArrow=classic;html=1;rounded=0;" edge="1" parent="1">
          <mxGeometry width="50" height="50" relative="1" as="geometry">
            <mxPoint x="770" y="660" as="sourcePoint" />
            <mxPoint x="960" y="660" as="targetPoint" />
          </mxGeometry>
        </mxCell>
        <mxCell id="v1VoSOO-kYvfU0O0kBkG-43" value="SETUP" style="text;html=1;strokeColor=none;fillColor=none;align=center;verticalAlign=middle;whiteSpace=wrap;rounded=0;" vertex="1" parent="1">
          <mxGeometry x="835" y="600" width="60" height="30" as="geometry" />
        </mxCell>
        <mxCell id="v1VoSOO-kYvfU0O0kBkG-44" value="200 OK" style="text;html=1;strokeColor=none;fillColor=none;align=center;verticalAlign=middle;whiteSpace=wrap;rounded=0;" vertex="1" parent="1">
          <mxGeometry x="835" y="660" width="60" height="30" as="geometry" />
        </mxCell>
        <mxCell id="v1VoSOO-kYvfU0O0kBkG-49" value="" style="endArrow=classic;html=1;rounded=0;" edge="1" parent="1">
          <mxGeometry width="50" height="50" relative="1" as="geometry">
            <mxPoint x="960" y="730" as="sourcePoint" />
            <mxPoint x="770" y="730" as="targetPoint" />
          </mxGeometry>
        </mxCell>
        <mxCell id="v1VoSOO-kYvfU0O0kBkG-50" value="" style="endArrow=classic;html=1;rounded=0;" edge="1" parent="1">
          <mxGeometry width="50" height="50" relative="1" as="geometry">
            <mxPoint x="770" y="760" as="sourcePoint" />
            <mxPoint x="960" y="760" as="targetPoint" />
          </mxGeometry>
        </mxCell>
        <mxCell id="v1VoSOO-kYvfU0O0kBkG-51" value="PLAY" style="text;html=1;strokeColor=none;fillColor=none;align=center;verticalAlign=middle;whiteSpace=wrap;rounded=0;" vertex="1" parent="1">
          <mxGeometry x="835" y="700" width="60" height="30" as="geometry" />
        </mxCell>
        <mxCell id="v1VoSOO-kYvfU0O0kBkG-52" value="200 OK" style="text;html=1;strokeColor=none;fillColor=none;align=center;verticalAlign=middle;whiteSpace=wrap;rounded=0;" vertex="1" parent="1">
          <mxGeometry x="835" y="760" width="60" height="30" as="geometry" />
        </mxCell>
        <mxCell id="v1VoSOO-kYvfU0O0kBkG-53" value="" style="endArrow=classic;html=1;rounded=0;" edge="1" parent="1">
          <mxGeometry width="50" height="50" relative="1" as="geometry">
            <mxPoint x="960" y="830" as="sourcePoint" />
            <mxPoint x="770" y="830" as="targetPoint" />
          </mxGeometry>
        </mxCell>
        <mxCell id="v1VoSOO-kYvfU0O0kBkG-54" value="" style="endArrow=classic;html=1;rounded=0;" edge="1" parent="1">
          <mxGeometry width="50" height="50" relative="1" as="geometry">
            <mxPoint x="770" y="860" as="sourcePoint" />
            <mxPoint x="960" y="860" as="targetPoint" />
          </mxGeometry>
        </mxCell>
        <mxCell id="v1VoSOO-kYvfU0O0kBkG-55" value="TEARDOWN" style="text;html=1;strokeColor=none;fillColor=none;align=center;verticalAlign=middle;whiteSpace=wrap;rounded=0;" vertex="1" parent="1">
          <mxGeometry x="835" y="800" width="60" height="30" as="geometry" />
        </mxCell>
        <mxCell id="v1VoSOO-kYvfU0O0kBkG-56" value="200 OK" style="text;html=1;strokeColor=none;fillColor=none;align=center;verticalAlign=middle;whiteSpace=wrap;rounded=0;" vertex="1" parent="1">
          <mxGeometry x="835" y="860" width="60" height="30" as="geometry" />
        </mxCell>
      </root>
    </mxGraphModel>
  </diagram>
</mxfile>
